<?xml version="1.0" encoding="UTF-8"?>
<svg width="9px" height="11px" viewBox="0 0 9 11" version="1.1" xmlns="http://www.w3.org/2000/svg" xmlns:xlink="http://www.w3.org/1999/xlink">
    <!-- Generator: Sketch 53.2 (72643) - https://sketchapp.com -->
    <title>Arrow</title>
    <desc>Created with Sketch.</desc>
    <g id="Main" stroke="none" stroke-width="1" fill="none" fill-rule="evenodd">
        <g id="Home" transform="translate(-378.000000, -16.000000)" fill="#F3F3F3" fill-rule="nonzero">
            <g id="Top-bar">
                <g id="Sorting" transform="translate(378.000000, 14.000000)">
                    <g id="Arrow" transform="translate(0.000000, 2.000000)">
                        <path d="M4.70085468,1.56484788 L4.70085468,10.5416667 C4.70085468,10.7947972 4.49039027,11 4.23076921,11 C3.97114815,11 3.76068374,10.7947972 3.76068374,10.5416667 L3.76068374,1.56484788 L0.802486065,4.44909062 C0.618906265,4.62808088 0.321264617,4.62808088 0.137684817,4.44909062 C-0.0458949827,4.27010027 -0.0458949827,3.97989973 0.137684817,3.80090938 L3.89836858,0.134242728 C4.08194842,-0.044747576 4.37959,-0.044747576 4.56316984,0.134242728 L8.32385361,3.80090938 C8.50743337,3.97989973 8.50743337,4.27010027 8.32385361,4.44909062 C8.14027377,4.62808088 7.84263219,4.62808088 7.65905235,4.44909062 L4.70085468,1.56484788 Z"></path>
                    </g>
                </g>
            </g>
        </g>
    </g>
</svg>