<?xml version="1.0" encoding="UTF-8"?>
<svg width="16px" height="14px" viewBox="0 0 16 14" version="1.1" xmlns="http://www.w3.org/2000/svg" xmlns:xlink="http://www.w3.org/1999/xlink">
    <!-- Generator: Sketch 53.2 (72643) - https://sketchapp.com -->
    <title>briefcase</title>
    <desc>Created with Sketch.</desc>
    <g id="Main" stroke="none" stroke-width="1" fill="none" fill-rule="evenodd" opacity="0.8">
        <g id="Home" transform="translate(-1189.000000, -14.000000)" fill="#FFFFFF" fill-rule="nonzero">
            <g id="Top-bar">
                <g id="Compare" transform="translate(1189.000000, 14.000000)">
                    <g id="briefcase" transform="translate(-0.000000, 0.000000)">
                        <path d="M13.1422925,2.8 L11.0671937,2.8 L11.0671937,2.1 C11.0671937,0.93975 10.138587,0 8.99209486,0 L6.22529644,0 C5.07880435,0 4.15019763,0.93975 4.15019763,2.1 L4.15019763,2.8 L2.07509881,2.8 C0.929125494,2.8 0,3.740275 0,4.9 L0,11.9 C0,13.059725 0.929125494,14 2.07509881,14 L13.1422925,14 C14.2882658,14 15.2173913,13.059725 15.2173913,11.9 L15.2173913,4.9 C15.2173913,3.740275 14.2882658,2.8 13.1422925,2.8 Z M11.0671937,4.2 L11.0671937,12.6 L4.15019763,12.6 L4.15019763,4.2 L11.0671937,4.2 Z M5.53359684,2.1 C5.53359684,1.71325 5.84313241,1.4 6.22529644,1.4 L8.99209486,1.4 C9.37425889,1.4 9.68379447,1.71325 9.68379447,2.1 L9.68379447,2.8 L5.53359684,2.8 L5.53359684,2.1 Z M1.38339921,11.9 L1.38339921,4.9 C1.38339921,4.51325 1.69293478,4.2 2.07509881,4.2 L2.76679842,4.2 L2.76679842,12.6 L2.07509881,12.6 C1.69293478,12.6 1.38339921,12.28675 1.38339921,11.9 Z M13.8339921,11.9 C13.8339921,12.28675 13.5244565,12.6 13.1422925,12.6 L12.4505929,12.6 L12.4505929,4.2 L13.1422925,4.2 C13.5244565,4.2 13.8339921,4.51325 13.8339921,4.9 L13.8339921,11.9 Z" id="Shape"></path>
                    </g>
                </g>
            </g>
        </g>
    </g>
</svg>