<?xml version="1.0" encoding="UTF-8"?>
<svg width="11px" height="11px" viewBox="0 0 11 11" version="1.1" xmlns="http://www.w3.org/2000/svg" xmlns:xlink="http://www.w3.org/1999/xlink">
    <!-- Generator: Sketch 53.2 (72643) - https://sketchapp.com -->
    <title>Search Icon</title>
    <desc>Created with Sketch.</desc>
    <g id="Main" stroke="none" stroke-width="1" fill="none" fill-rule="evenodd" opacity="0.8">
        <g id="Home" transform="translate(-516.000000, -17.000000)" fill="#FFFFFF" fill-rule="nonzero">
            <g id="Top-bar">
                <g id="Search" transform="translate(516.000000, 14.000000)">
                    <path d="M6.89443522,10.9221953 C6.18077884,11.430771 5.3075714,11.7299089 4.36450371,11.7299089 C1.95405475,11.7299089 0,9.77565231 0,7.36495443 C0,4.95425654 1.95405475,3 4.36450371,3 C6.77495267,3 8.72900742,4.95425654 8.72900742,7.36495443 C8.72900742,8.3081195 8.42990043,9.18141712 7.92137727,9.8951472 L10.7890109,12.7630769 C11.0715231,13.0456184 11.0691677,13.4976993 10.7889086,13.7779873 L10.7768744,13.7900228 C10.4973322,14.0695939 10.0422714,14.0703565 9.76206881,13.790125 L6.89443522,10.9221953 L6.89443522,10.9221953 Z M4.36450371,10.7028608 C6.20778823,10.7028608 7.70206537,9.2084293 7.70206537,7.36495443 C7.70206537,5.52147955 6.20778823,4.0270481 4.36450371,4.0270481 C2.52121919,4.0270481 1.02694205,5.52147955 1.02694205,7.36495443 C1.02694205,9.2084293 2.52121919,10.7028608 4.36450371,10.7028608 L4.36450371,10.7028608 Z" id="Search-Icon"></path>
                </g>
            </g>
        </g>
    </g>
</svg>