<?xml version="1.0" encoding="UTF-8"?>
<svg width="20px" height="20px" viewBox="0 0 20 20" version="1.1" xmlns="http://www.w3.org/2000/svg" xmlns:xlink="http://www.w3.org/1999/xlink">
    <!-- Generator: Sketch 53.2 (72643) - https://sketchapp.com -->
    <title>Settings</title>
    <desc>Created with Sketch.</desc>
    <g id="Main" stroke="none" stroke-width="1" fill="none" fill-rule="evenodd" opacity="0.8">
        <g id="Home" transform="translate(-1396.000000, -12.000000)" fill="#FFFFFF" fill-rule="nonzero">
            <g id="Top-bar">
                <path d="M1414.34692,26.0893333 L1413.68557,27.244 C1413.50289,27.5633333 1413.09888,27.672 1412.7822,27.488 L1410.94546,26.4186667 C1410.01342,27.4793333 1408.7527,28.2393333 1407.32198,28.5326667 L1407.32198,30 C1407.32198,30.3686667 1407.02663,30.6666667 1406.66129,30.6666667 L1405.33857,30.6666667 C1404.97322,30.6666667 1404.67787,30.3686667 1404.67787,30 L1404.67787,28.5326667 C1403.24715,28.2393333 1401.98643,27.4793333 1401.0544,26.4186667 L1399.21766,27.488 C1398.90098,27.672 1398.49696,27.5633333 1398.31429,27.244 L1397.65293,26.0893333 C1397.47026,25.7706667 1397.57893,25.3626667 1397.89494,25.1793333 L1399.73901,24.1046667 C1399.51967,23.442 1399.38833,22.7373333 1399.38833,22 C1399.38833,21.2626667 1399.51967,20.5586667 1399.73901,19.8953333 L1397.89494,18.8213333 C1397.57893,18.6373333 1397.47026,18.23 1397.65293,17.9106667 L1398.31429,16.756 C1398.49696,16.4373333 1398.90098,16.328 1399.21766,16.512 L1401.0544,17.5813333 C1401.98643,16.5206667 1403.24715,15.7606667 1404.67787,15.4673333 L1404.67787,14 C1404.67787,13.6313333 1404.97322,13.3333333 1405.33857,13.3333333 L1406.66129,13.3333333 C1407.02663,13.3333333 1407.32198,13.6313333 1407.32198,14 L1407.32198,15.4673333 C1408.7527,15.7606667 1410.01342,16.5206667 1410.94546,17.5813333 L1412.7822,16.512 C1413.09888,16.328 1413.50289,16.4373333 1413.68557,16.756 L1414.34692,17.9106667 C1414.5296,18.23 1414.42093,18.6373333 1414.10492,18.8213333 L1412.26084,19.8953333 C1412.48018,20.5586667 1412.61152,21.2626667 1412.61152,22 C1412.61152,22.7373333 1412.48018,23.442 1412.26084,24.1046667 L1414.10492,25.1793333 C1414.42093,25.3626667 1414.5296,25.7706667 1414.34692,26.0893333 L1414.34692,26.0893333 Z M1415.33896,24.3573333 L1413.79024,23.456 C1413.87691,22.9826667 1413.93424,22.4993333 1413.93424,22 C1413.93424,21.5013333 1413.87691,21.0173333 1413.79024,20.544 L1415.33896,19.6426667 C1415.97166,19.2746667 1416.18766,18.4586667 1415.82232,17.8213333 L1414.50026,15.512 C1414.13558,14.8746667 1413.32622,14.6553333 1412.69419,15.024 L1411.12946,15.934 C1410.39877,15.3073333 1409.56807,14.7946667 1408.6447,14.4646667 L1408.6447,13.3333333 C1408.6447,12.5973333 1408.05268,12 1407.32198,12 L1404.67787,12 C1403.94718,12 1403.35516,12.5973333 1403.35516,13.3333333 L1403.35516,14.4646667 C1402.43179,14.7946667 1401.60109,15.3073333 1400.87039,15.934 L1399.30566,15.024 C1398.67364,14.6553333 1397.86427,14.8746667 1397.49959,15.512 L1396.17754,17.8213333 C1395.81219,18.4586667 1396.02887,19.2746667 1396.66089,19.6426667 L1398.20962,20.544 C1398.12295,21.0173333 1398.06561,21.5013333 1398.06561,22 C1398.06561,22.4993333 1398.12295,22.9826667 1398.20962,23.456 L1396.66089,24.3573333 C1396.02887,24.7253333 1395.81219,25.5413333 1396.17754,26.1786667 L1397.49959,28.488 C1397.86427,29.1253333 1398.67364,29.3446667 1399.30566,28.976 L1400.87039,28.066 C1401.60109,28.6926667 1402.43179,29.206 1403.35516,29.5353333 L1403.35516,30.6666667 C1403.35516,31.4026667 1403.94718,32 1404.67787,32 L1407.32198,32 C1408.05268,32 1408.6447,31.4026667 1408.6447,30.6666667 L1408.6447,29.5353333 C1409.56807,29.206 1410.39877,28.6926667 1411.12946,28.066 L1412.69419,28.976 C1413.32622,29.3446667 1414.13558,29.1253333 1414.50026,28.488 L1415.82232,26.1786667 C1416.18766,25.5413333 1415.97166,24.7253333 1415.33896,24.3573333 L1415.33896,24.3573333 Z M1405.99993,24 C1404.90455,24 1404.01652,23.1046667 1404.01652,22 C1404.01652,20.896 1404.90455,20 1405.99993,20 C1407.0953,20 1407.98334,20.896 1407.98334,22 C1407.98334,23.1046667 1407.0953,24 1405.99993,24 L1405.99993,24 Z M1405.99993,18.6666667 C1404.17385,18.6666667 1402.69446,20.1586667 1402.69446,22 C1402.69446,23.8413333 1404.17385,25.3333333 1405.99993,25.3333333 C1407.826,25.3333333 1409.30606,23.8413333 1409.30606,22 C1409.30606,20.1586667 1407.826,18.6666667 1405.99993,18.6666667 L1405.99993,18.6666667 Z" id="Settings"></path>
            </g>
        </g>
    </g>
</svg>